<svg xmlns="http://www.w3.org/2000/svg" version="1.1" xmlns:xlink="http://www.w3.org/1999/xlink" xmlns:svgjs="http://svgjs.dev/svgjs" width="1500" height="500" viewBox="0 0 1500 500"><g transform="matrix(1,0,0,1,-0.9090909090909918,-1.8580835839310907)"><svg viewBox="0 0 396 132" data-background-color="#000000" preserveAspectRatio="xMidYMid meet" height="500" width="1500" xmlns="http://www.w3.org/2000/svg" xmlns:xlink="http://www.w3.org/1999/xlink"><g id="tight-bounds" transform="matrix(1,0,0,1,0.2400000000000091,0.4905340661578066)"><svg viewBox="0 0 395.52 131.01883299096403" height="131.01883299096403" width="395.52"><rect width="395.52" height="131.01893186768436" fill="url(#0f68a234-bdf8-419f-abe4-7967c3b96335)" mask="url(#702d822e-dd04-4e62-b525-81d53387d16d)" data-fill-palette-color="tertiary"></rect><g><svg viewBox="0 0 679.269327656235 225.01283018830065" height="131.01883299096403" width="395.52"><g transform="matrix(1,0,0,1,283.7493276562349,50.305579909787824)"><svg viewBox="0 0 395.52 124.40167036872501" height="124.40167036872501" width="395.52"><g id="textblocktransform"><svg viewBox="0 0 395.52 124.40167036872501" height="124.40167036872501" width="395.52" id="textblock"><g><svg viewBox="0 0 395.52 124.40167036872501" height="124.40167036872501" width="395.52"><g transform="matrix(1,0,0,1,0,0)"><svg width="395.52" viewBox="2.15 -34.38 109.89999999999999 34.580000000000005" height="124.40167036872501" data-palette-color="url(#4dc2b6c3-5aef-4c58-9e6d-41aaa9a74f93)"></svg></g></svg></g></svg></g></svg></g><g><svg viewBox="0 0 225.01283018830065 225.01283018830065" height="225.01283018830065" width="225.01283018830065"><g><svg></svg></g><g id="icon-0"><svg viewBox="0 0 225.01283018830065 225.01283018830065" height="225.01283018830065" width="225.01283018830065"><g><path d="M0 112.506c0-62.136 50.371-112.506 112.506-112.506 62.136 0 112.506 50.371 112.507 112.506 0 62.136-50.371 112.506-112.507 112.507-62.136 0-112.506-50.371-112.506-112.507zM112.506 213.794c55.94 0 101.288-45.348 101.288-101.288 0-55.94-45.348-101.288-101.288-101.287-55.94 0-101.288 45.348-101.287 101.287 0 55.94 45.348 101.288 101.287 101.288z" data-fill-palette-color="tertiary" fill="url(#0f68a234-bdf8-419f-abe4-7967c3b96335)" stroke="transparent"></path></g><g transform="matrix(1,0,0,1,65.34193200044025,49.52711801520065)"><svg viewBox="0 0 94.32896618742015 125.95859415789936" height="125.95859415789936" width="94.32896618742015"><g><svg xmlns="http://www.w3.org/2000/svg" xmlns:xlink="http://www.w3.org/1999/xlink" version="1.0" x="0" y="0" viewBox="28.108222222222224 20.533663758742186 43.78477777777778 58.46633624126816" enable-background="new 0 0 100 100" xml:space="preserve" height="125.95859415789936" width="94.32896618742015" class="icon-dxe-0" data-fill-palette-color="accent" id="dxe-0"></svg></g></svg></g></svg></g></svg></g></svg></g><defs></defs><mask id="576619cc-5a9b-4d0c-8c2b-ada87c920e0d"><g id="SvgjsG9311"><svg viewBox="0 0 395.52 131.01883299096403" height="131.01883299096403" width="395.52"><g><svg viewBox="0 0 679.269327656235 225.01283018830065" height="131.01883299096403" width="395.52"><g transform="matrix(1,0,0,1,283.7493276562349,50.305579909787824)"><svg viewBox="0 0 395.52 124.40167036872501" height="124.40167036872501" width="395.52"><g id="SvgjsG9310"><svg viewBox="0 0 395.52 124.40167036872501" height="124.40167036872501" width="395.52" id="SvgjsSvg9309"><g><svg viewBox="0 0 395.52 124.40167036872501" height="124.40167036872501" width="395.52"><g transform="matrix(1,0,0,1,0,0)"><svg width="395.52" viewBox="2.15 -34.38 109.89999999999999 34.580000000000005" height="124.40167036872501" data-palette-color="url(#4dc2b6c3-5aef-4c58-9e6d-41aaa9a74f93)"><path d="M9.72-25.59L9.72-25.59Q9.74-24.56 10.31-23.74 10.89-22.92 11.84-22.19L11.84-22.19Q12.62-21.58 14.01-20.75 15.41-19.92 16.43-19.31L16.43-19.31Q17.68-18.55 18.87-17.64 20.07-16.72 21.02-15.58L21.02-15.58Q21.97-14.43 22.56-12.99 23.14-11.55 23.19-9.72L23.19-9.72 23.19-9.52Q23.19-7.57 22.71-6.03L22.71-6.03Q21.73-3.13 19.53-1.71L19.53-1.71Q18.41-0.98 17.29-0.59L17.29-0.59Q16.09-0.17 14.88 0 13.67 0.17 12.6 0.2L12.6 0.2 12.35 0.2Q10.33 0.2 8.72-0.22L8.72-0.22Q7.15-0.63 6.03-1.33 4.91-2.03 4.17-2.93L4.17-2.93Q3.42-3.83 2.98-4.81L2.98-4.81Q2.54-5.76 2.34-6.71 2.15-7.67 2.15-8.5L2.15-8.5Q2.15-10.16 3.16-10.99 4.17-11.82 5.62-11.82L5.62-11.82Q7.01-11.82 8.19-10.97 9.38-10.13 9.42-8.54L9.42-8.54Q9.47-6.71 10.25-6.04 11.04-5.37 12.5-5.37L12.5-5.37Q14.09-5.42 14.98-6.18 15.87-6.93 15.87-8.89L15.87-8.89Q15.87-10.57 14.88-11.87 13.89-13.16 12.38-14.25 10.86-15.33 9.23-16.36L9.23-16.36Q7.52-17.46 6.01-18.66 4.49-19.87 3.54-21.41 2.59-22.95 2.54-25L2.54-25 2.54-25.39Q2.56-28 3.23-29.74 3.91-31.47 5.22-32.5L5.22-32.5Q6.52-33.52 8.42-33.95 10.33-34.38 12.79-34.38L12.79-34.38 13.43-34.38Q15.63-34.38 17.24-33.89L17.24-33.89Q18.8-33.4 19.84-32.64 20.87-31.88 21.48-30.93L21.48-30.93Q22.07-30 22.36-29.05L22.36-29.05Q22.66-28.13 22.73-27.32 22.8-26.51 22.8-26.03L22.8-26.03Q22.8-24.58 21.77-23.69 20.73-22.8 19.24-22.8L19.24-22.8Q18.12-22.8 17.04-23.63 15.97-24.46 15.97-25.44L15.97-25.44Q15.97-27.44 15.25-28.22 14.53-29 13.13-29L13.13-29Q11.52-29 10.62-28.42 9.72-27.83 9.72-25.59ZM47.02-18.85L47.02-18.85 47.02-5.52Q47.02-4 46.8-2.75 46.58-1.49 45.81-0.74 45.04 0 43.36 0L43.36 0Q41.77 0 40.96-0.62 40.16-1.25 39.88-2.19 39.6-3.13 39.6-4.1L39.6-4.1Q39.11-2.49 37.84-1.25 36.57 0 34.32 0L34.32 0Q32.98 0 31.64-0.44 30.3-0.88 29.22-1.9L29.22-1.9Q28.15-2.93 27.48-4.58 26.8-6.23 26.8-8.64L26.8-8.64 26.8-15.72Q26.8-18.16 27.48-19.81 28.15-21.46 29.22-22.49L29.22-22.49Q30.3-23.49 31.64-23.93 32.98-24.37 34.32-24.37L34.32-24.37Q36.57-24.37 37.84-23.14 39.11-21.92 39.6-20.26L39.6-20.26Q39.6-22.51 40.7-23.46 41.79-24.41 43.36-24.41L43.36-24.41Q44.94-24.41 45.73-23.66 46.51-22.9 46.76-21.63 47.02-20.36 47.02-18.85ZM34.32-15.19L34.32-15.19 34.32-9.28Q34.32-7.86 34.67-6.79 35.01-5.71 36.47-5.71L36.47-5.71Q38.28-5.71 38.96-7.47L38.96-7.47Q39.3-8.35 39.44-9.7 39.57-11.06 39.6-12.94L39.6-12.94Q39.6-14.09 39.33-15.42 39.06-16.75 38.38-17.7 37.69-18.65 36.47-18.65L36.47-18.65Q35.01-18.65 34.67-17.6 34.32-16.55 34.32-15.19ZM60.88-30.47L60.88-30.47Q60.88-28.59 59.91-27.67 58.93-26.76 57.17-26.76L57.17-26.76Q55.41-26.76 54.44-27.67 53.46-28.59 53.46-30.47L53.46-30.47Q53.46-32.42 54.44-33.3 55.41-34.18 57.17-34.18L57.17-34.18Q59.05-34.18 59.97-33.3 60.88-32.42 60.88-30.47ZM53.41-5.47L53.41-5.47 53.41-18.95Q53.41-20.41 53.67-21.66 53.93-22.9 54.72-23.66 55.51-24.41 57.12-24.41L57.12-24.41Q58.74-24.41 59.53-23.66 60.32-22.9 60.58-21.66 60.83-20.41 60.83-18.95L60.83-18.95 60.83-5.47Q60.83-3.98 60.58-2.73 60.32-1.49 59.53-0.74 58.74 0 57.12 0L57.12 0Q55.51 0 54.72-0.74 53.93-1.49 53.67-2.73 53.41-3.98 53.41-5.47ZM87.79-15.43L87.79-15.43 87.79-13.92Q87.79-12.72 87.19-11.78 86.59-10.84 84.32-10.84L84.32-10.84 74.6-10.84 74.6-8.5Q74.6-7.15 75.3-6.02 75.99-4.88 77.63-4.88L77.63-4.88Q78.92-4.88 79.51-5.31 80.1-5.74 80.51-6.42L80.51-6.42Q80.78-6.84 81.17-7.15L81.17-7.15Q81.58-7.5 82.29-7.73 83-7.96 84.27-7.96L84.27-7.96Q85.59-7.96 86.52-7.46 87.44-6.96 87.44-5.52L87.44-5.52Q87.44-3.93 86.44-2.87 85.44-1.81 83.93-1.17L83.93-1.17Q82.41-0.54 80.64-0.27 78.87 0 77.34 0L77.34 0Q75.31-0.02 73.48-0.51 71.65-1 70.26-2.08L70.26-2.08Q68.84-3.15 68.01-4.88 67.18-6.62 67.18-9.13L67.18-9.13 67.18-14.84Q67.18-17.14 67.74-18.77L67.74-18.77Q68.3-20.39 69.17-21.46 70.04-22.53 71.14-23.14L71.14-23.14Q72.23-23.73 73.36-24.02L73.36-24.02Q74.48-24.32 75.49-24.39 76.51-24.46 77.24-24.46L77.24-24.46Q79.7-24.46 81.46-24.02L81.46-24.02Q83.2-23.58 84.37-22.88 85.54-22.17 86.22-21.24L86.22-21.24Q86.93-20.34 87.25-19.34L87.25-19.34Q87.59-18.36 87.69-17.33 87.79-16.31 87.79-15.43ZM74.6-16.21L74.6-16.21 74.6-14.5 80.71-14.5Q80.71-16.09 80.55-17.15 80.39-18.21 79.72-18.75 79.05-19.29 77.48-19.29L77.48-19.29Q75.7-19.29 75.15-18.32 74.6-17.36 74.6-16.21ZM112.05-28.61L112.05-28.61 112.05-5.52Q112.05-4 111.83-2.75 111.61-1.49 110.84-0.74 110.07 0 108.39 0L108.39 0Q106.8 0 106-0.62 105.19-1.25 104.91-2.19 104.63-3.13 104.63-4.1L104.63-4.1Q104.14-2.49 102.87-1.25 101.6 0 99.36 0L99.36 0Q98.01 0 96.67-0.44 95.33-0.88 94.25-1.9L94.25-1.9Q93.18-2.93 92.51-4.58 91.84-6.23 91.84-8.64L91.84-8.64 91.84-15.72Q91.84-18.16 92.51-19.81 93.18-21.46 94.25-22.49L94.25-22.49Q95.33-23.49 96.67-23.93 98.01-24.37 99.36-24.37L99.36-24.37Q101.6-24.37 102.87-23.14 104.14-21.92 104.63-20.26L104.63-20.26 104.63-28.61Q104.63-30.15 104.89-31.41 105.14-32.67 105.95-33.42 106.75-34.18 108.39-34.18L108.39-34.18Q109.98-34.18 110.76-33.42 111.54-32.67 111.79-31.4 112.05-30.13 112.05-28.61ZM99.36-15.19L99.36-15.19 99.36-9.28Q99.36-7.86 99.7-6.79 100.04-5.71 101.5-5.71L101.5-5.71Q103.31-5.71 103.99-7.47L103.99-7.47Q104.34-8.35 104.47-9.7 104.6-11.06 104.63-12.94L104.63-12.94Q104.63-14.09 104.36-15.42 104.09-16.75 103.41-17.7 102.72-18.65 101.5-18.65L101.5-18.65Q100.04-18.65 99.7-17.6 99.36-16.55 99.36-15.19Z" opacity="1" transform="matrix(1,0,0,1,0,0)" fill="white" class="wordmark-text-0" id="SvgjsPath9308"></path></svg></g></svg></g></svg></g></svg></g><g><svg viewBox="0 0 225.01283018830065 225.01283018830065" height="225.01283018830065" width="225.01283018830065"><g><svg></svg></g><g id="SvgjsG9307"><svg viewBox="0 0 225.01283018830065 225.01283018830065" height="225.01283018830065" width="225.01283018830065"><g><path d="M0 112.506c0-62.136 50.371-112.506 112.506-112.506 62.136 0 112.506 50.371 112.507 112.506 0 62.136-50.371 112.506-112.507 112.507-62.136 0-112.506-50.371-112.506-112.507zM112.506 213.794c55.94 0 101.288-45.348 101.288-101.288 0-55.94-45.348-101.288-101.288-101.287-55.94 0-101.288 45.348-101.287 101.287 0 55.94 45.348 101.288 101.287 101.288z" fill="black" stroke="transparent"></path></g><g transform="matrix(1,0,0,1,65.34193200044025,49.52711801520065)"><svg viewBox="0 0 94.32896618742015 125.95859415789936" height="125.95859415789936" width="94.32896618742015"><g><svg xmlns="http://www.w3.org/2000/svg" xmlns:xlink="http://www.w3.org/1999/xlink" version="1.0" x="0" y="0" viewBox="28.108222222222224 20.533663758742186 43.78477777777778 58.46633624126816" enable-background="new 0 0 100 100" xml:space="preserve" height="125.95859415789936" width="94.32896618742015" class="icon-dxe-0" data-fill-palette-color="accent" id="SvgjsSvg9306"><g fill="black"><g fill="black"><path d="M71.867 57.15C71.824 48.574 61.146 43.383 60.73 43.186 59.354 42.455 58.642 41.38 59.631 38.505 60.52 35.946 61.289 33.372 60.93 30.036 60.37 24.786 55.494 20.534 50.046 20.534H49.996C44.566 20.49 39.624 24.77 39.062 30.035 38.704 33.373 39.473 35.947 40.363 38.503 41.351 41.38 40.638 42.455 39.301 43.165 38.848 43.382 28.168 48.573 28.126 57.151 28.086 65.11 28.126 77.875 28.126 78.003A1 1 0 0 0 29.126 79H70.888A1 1 0 0 0 71.888 78.001C71.888 77.874 71.908 65.111 71.868 57.151M41.051 30.249C41.498 26.058 45.566 22.533 49.947 22.533H50C50.016 22.531 50.03 22.533 50.045 22.533 54.425 22.533 58.495 26.057 58.94 30.25 59.228 32.91 58.741 34.974 57.741 37.852 57.477 38.62 56.89 40.341 57.338 42.03 54.973 44.281 52.508 45.401 49.93 45.334 46.41 45.239 43.647 42.928 42.67 41.994 43.097 40.319 42.516 38.614 42.252 37.85 41.252 34.975 40.765 32.912 41.051 30.248M69.889 77H30.123C30.115 73.832 30.093 63.815 30.126 57.16 30.161 49.842 40.063 45.019 40.201 44.952A5.4 5.4 0 0 0 41.691 43.812C43.097 45.068 46.05 47.222 49.855 47.332 49.957 47.336 50.06 47.338 50.16 47.338 53.02 47.337 55.762 46.153 58.335 43.834 58.715 44.248 59.196 44.634 59.83 44.971 59.93 45.018 69.831 49.824 69.867 57.16 69.9 63.814 69.893 73.829 69.89 77" fill="black"></path><path d="M48.996 36L52.996 36.015H53A1 1 0 0 0 53.004 34.015L50 34.003V29A1 1 0 1 0 48 29V35A1 1 0 0 0 48.996 36" fill="black"></path><path d="M47.144 56.14A1 1 0 0 0 45.735 56.004L40.028 60.712A1 1 0 0 0 40.032 62.258L45.528 66.754A1 1 0 1 0 46.794 65.206L42.24 61.48 47.01 57.547A1 1 0 0 0 47.144 56.14" fill="black"></path><path d="M58.085 64.98H51.32A1 1 0 1 0 51.32 66.98H58.085A1 1 0 1 0 58.085 64.98" fill="black"></path></g></g></svg></g></svg></g></svg></g></svg></g></svg></g><defs><mask></mask></defs></svg><rect width="395.52" height="131.01883299096403" fill="black" stroke="none" visibility="hidden"></rect></g></mask><linearGradient x1="0" x2="1" y1="0.578" y2="0.595" id="4dc2b6c3-5aef-4c58-9e6d-41aaa9a74f93"><stop stop-color="#6ee2f5" offset="0"></stop><stop stop-color="#6454f0" offset="1"></stop></linearGradient><rect width="395.52" height="131.01893186768436" fill="url(#4dc2b6c3-5aef-4c58-9e6d-41aaa9a74f93)" mask="url(#576619cc-5a9b-4d0c-8c2b-ada87c920e0d)" data-fill-palette-color="primary"></rect><mask id="9ba70e26-ddb2-45ad-acf3-275ee53f8d78"><g id="SvgjsG9334"><svg viewBox="0 0 395.52 131.01883299096403" height="131.01883299096403" width="395.52"><g><svg viewBox="0 0 679.269327656235 225.01283018830065" height="131.01883299096403" width="395.52"><g transform="matrix(1,0,0,1,283.7493276562349,50.305579909787824)"><svg viewBox="0 0 395.52 124.40167036872501" height="124.40167036872501" width="395.52"><g id="SvgjsG9333"><svg viewBox="0 0 395.52 124.40167036872501" height="124.40167036872501" width="395.52" id="SvgjsSvg9332"><g><svg viewBox="0 0 395.52 124.40167036872501" height="124.40167036872501" width="395.52"><g transform="matrix(1,0,0,1,0,0)"><svg width="395.52" viewBox="2.15 -34.38 109.89999999999999 34.580000000000005" height="124.40167036872501" data-palette-color="url(#4dc2b6c3-5aef-4c58-9e6d-41aaa9a74f93)"></svg></g></svg></g></svg></g></svg></g><g><svg viewBox="0 0 225.01283018830065 225.01283018830065" height="225.01283018830065" width="225.01283018830065"><g><svg></svg></g><g id="SvgjsG9331"><svg viewBox="0 0 225.01283018830065 225.01283018830065" height="225.01283018830065" width="225.01283018830065"><g><path d="M0 112.506c0-62.136 50.371-112.506 112.506-112.506 62.136 0 112.506 50.371 112.507 112.506 0 62.136-50.371 112.506-112.507 112.507-62.136 0-112.506-50.371-112.506-112.507zM112.506 213.794c55.94 0 101.288-45.348 101.288-101.288 0-55.94-45.348-101.288-101.288-101.287-55.94 0-101.288 45.348-101.287 101.287 0 55.94 45.348 101.288 101.287 101.288z" fill="black" stroke="transparent"></path></g><g transform="matrix(1,0,0,1,65.34193200044025,49.52711801520065)"><svg viewBox="0 0 94.32896618742015 125.95859415789936" height="125.95859415789936" width="94.32896618742015"><g><svg xmlns="http://www.w3.org/2000/svg" xmlns:xlink="http://www.w3.org/1999/xlink" version="1.0" x="0" y="0" viewBox="28.108222222222224 20.533663758742186 43.78477777777778 58.46633624126816" enable-background="new 0 0 100 100" xml:space="preserve" height="125.95859415789936" width="94.32896618742015" class="icon-dxe-0" data-fill-palette-color="accent" id="SvgjsSvg9330"><g fill="white"><g fill="white"><path d="M71.867 57.15C71.824 48.574 61.146 43.383 60.73 43.186 59.354 42.455 58.642 41.38 59.631 38.505 60.52 35.946 61.289 33.372 60.93 30.036 60.37 24.786 55.494 20.534 50.046 20.534H49.996C44.566 20.49 39.624 24.77 39.062 30.035 38.704 33.373 39.473 35.947 40.363 38.503 41.351 41.38 40.638 42.455 39.301 43.165 38.848 43.382 28.168 48.573 28.126 57.151 28.086 65.11 28.126 77.875 28.126 78.003A1 1 0 0 0 29.126 79H70.888A1 1 0 0 0 71.888 78.001C71.888 77.874 71.908 65.111 71.868 57.151M41.051 30.249C41.498 26.058 45.566 22.533 49.947 22.533H50C50.016 22.531 50.03 22.533 50.045 22.533 54.425 22.533 58.495 26.057 58.94 30.25 59.228 32.91 58.741 34.974 57.741 37.852 57.477 38.62 56.89 40.341 57.338 42.03 54.973 44.281 52.508 45.401 49.93 45.334 46.41 45.239 43.647 42.928 42.67 41.994 43.097 40.319 42.516 38.614 42.252 37.85 41.252 34.975 40.765 32.912 41.051 30.248M69.889 77H30.123C30.115 73.832 30.093 63.815 30.126 57.16 30.161 49.842 40.063 45.019 40.201 44.952A5.4 5.4 0 0 0 41.691 43.812C43.097 45.068 46.05 47.222 49.855 47.332 49.957 47.336 50.06 47.338 50.16 47.338 53.02 47.337 55.762 46.153 58.335 43.834 58.715 44.248 59.196 44.634 59.83 44.971 59.93 45.018 69.831 49.824 69.867 57.16 69.9 63.814 69.893 73.829 69.89 77" fill="white"></path><path d="M48.996 36L52.996 36.015H53A1 1 0 0 0 53.004 34.015L50 34.003V29A1 1 0 1 0 48 29V35A1 1 0 0 0 48.996 36" fill="white"></path><path d="M47.144 56.14A1 1 0 0 0 45.735 56.004L40.028 60.712A1 1 0 0 0 40.032 62.258L45.528 66.754A1 1 0 1 0 46.794 65.206L42.24 61.48 47.01 57.547A1 1 0 0 0 47.144 56.14" fill="white"></path><path d="M58.085 64.98H51.32A1 1 0 1 0 51.32 66.98H58.085A1 1 0 1 0 58.085 64.98" fill="white"></path></g></g></svg></g></svg></g></svg></g></svg></g></svg></g><defs><mask></mask></defs><mask><g id="SvgjsG9329"><svg viewBox="0 0 395.52 131.01883299096403" height="131.01883299096403" width="395.52"><g><svg viewBox="0 0 679.269327656235 225.01283018830065" height="131.01883299096403" width="395.52"><g transform="matrix(1,0,0,1,283.7493276562349,50.305579909787824)"><svg viewBox="0 0 395.52 124.40167036872501" height="124.40167036872501" width="395.52"><g id="SvgjsG9328"><svg viewBox="0 0 395.52 124.40167036872501" height="124.40167036872501" width="395.52" id="SvgjsSvg9327"><g><svg viewBox="0 0 395.52 124.40167036872501" height="124.40167036872501" width="395.52"><g transform="matrix(1,0,0,1,0,0)"><svg width="395.52" viewBox="2.15 -34.38 109.89999999999999 34.580000000000005" height="124.40167036872501" data-palette-color="url(#4dc2b6c3-5aef-4c58-9e6d-41aaa9a74f93)"><path d="M9.72-25.59L9.72-25.59Q9.74-24.56 10.31-23.74 10.89-22.92 11.84-22.19L11.84-22.19Q12.62-21.58 14.01-20.75 15.41-19.92 16.43-19.31L16.43-19.31Q17.68-18.55 18.87-17.64 20.07-16.72 21.02-15.58L21.02-15.58Q21.97-14.43 22.56-12.99 23.14-11.55 23.19-9.72L23.19-9.72 23.19-9.52Q23.19-7.57 22.71-6.03L22.71-6.03Q21.73-3.13 19.53-1.71L19.53-1.71Q18.41-0.98 17.29-0.59L17.29-0.59Q16.09-0.17 14.88 0 13.67 0.17 12.6 0.2L12.6 0.2 12.35 0.2Q10.33 0.2 8.72-0.22L8.72-0.22Q7.15-0.63 6.03-1.33 4.91-2.03 4.17-2.93L4.17-2.93Q3.42-3.83 2.98-4.81L2.98-4.81Q2.54-5.76 2.34-6.71 2.15-7.67 2.15-8.5L2.15-8.5Q2.15-10.16 3.16-10.99 4.17-11.82 5.62-11.82L5.62-11.82Q7.01-11.82 8.19-10.97 9.38-10.13 9.42-8.54L9.42-8.54Q9.47-6.71 10.25-6.04 11.04-5.37 12.5-5.37L12.5-5.37Q14.09-5.42 14.98-6.18 15.87-6.93 15.87-8.89L15.87-8.89Q15.87-10.57 14.88-11.87 13.89-13.16 12.38-14.25 10.86-15.33 9.23-16.36L9.23-16.36Q7.52-17.46 6.01-18.66 4.49-19.87 3.54-21.41 2.59-22.95 2.54-25L2.54-25 2.54-25.39Q2.56-28 3.23-29.74 3.91-31.47 5.22-32.5L5.22-32.5Q6.52-33.52 8.42-33.95 10.33-34.38 12.79-34.38L12.79-34.38 13.43-34.38Q15.63-34.38 17.24-33.89L17.24-33.89Q18.8-33.4 19.84-32.64 20.87-31.88 21.48-30.93L21.48-30.93Q22.07-30 22.36-29.05L22.36-29.05Q22.66-28.13 22.73-27.32 22.8-26.51 22.8-26.03L22.8-26.03Q22.8-24.58 21.77-23.69 20.73-22.8 19.24-22.8L19.24-22.8Q18.12-22.8 17.04-23.63 15.97-24.46 15.97-25.44L15.97-25.44Q15.97-27.44 15.25-28.22 14.53-29 13.13-29L13.13-29Q11.52-29 10.62-28.42 9.72-27.83 9.72-25.59ZM47.02-18.85L47.02-18.85 47.02-5.52Q47.02-4 46.8-2.75 46.58-1.49 45.81-0.74 45.04 0 43.36 0L43.36 0Q41.77 0 40.96-0.62 40.16-1.25 39.88-2.19 39.6-3.13 39.6-4.1L39.6-4.1Q39.11-2.49 37.84-1.25 36.57 0 34.32 0L34.32 0Q32.98 0 31.64-0.44 30.3-0.88 29.22-1.9L29.22-1.9Q28.15-2.93 27.48-4.58 26.8-6.23 26.8-8.64L26.8-8.64 26.8-15.72Q26.8-18.16 27.48-19.81 28.15-21.46 29.22-22.49L29.22-22.49Q30.3-23.49 31.64-23.93 32.98-24.37 34.32-24.37L34.32-24.37Q36.57-24.37 37.84-23.14 39.11-21.92 39.6-20.26L39.6-20.26Q39.6-22.51 40.7-23.46 41.79-24.41 43.36-24.41L43.36-24.41Q44.94-24.41 45.73-23.66 46.51-22.9 46.76-21.63 47.02-20.36 47.02-18.85ZM34.32-15.19L34.32-15.19 34.32-9.28Q34.32-7.86 34.67-6.79 35.01-5.71 36.47-5.71L36.47-5.71Q38.28-5.71 38.96-7.47L38.96-7.47Q39.3-8.35 39.44-9.7 39.57-11.06 39.6-12.94L39.6-12.94Q39.6-14.09 39.33-15.42 39.06-16.75 38.38-17.7 37.69-18.65 36.47-18.65L36.47-18.65Q35.01-18.65 34.67-17.6 34.32-16.55 34.32-15.19ZM60.88-30.47L60.88-30.47Q60.88-28.59 59.91-27.67 58.93-26.76 57.17-26.76L57.17-26.76Q55.41-26.76 54.44-27.67 53.46-28.59 53.46-30.47L53.46-30.47Q53.46-32.42 54.44-33.3 55.41-34.18 57.17-34.18L57.17-34.18Q59.05-34.18 59.97-33.3 60.88-32.42 60.88-30.47ZM53.41-5.47L53.41-5.47 53.41-18.95Q53.41-20.41 53.67-21.66 53.93-22.9 54.72-23.66 55.51-24.41 57.12-24.41L57.12-24.41Q58.74-24.41 59.53-23.66 60.32-22.9 60.58-21.66 60.83-20.41 60.83-18.95L60.83-18.95 60.83-5.47Q60.83-3.98 60.58-2.73 60.32-1.49 59.53-0.74 58.74 0 57.12 0L57.12 0Q55.51 0 54.72-0.74 53.93-1.49 53.67-2.73 53.41-3.98 53.41-5.47ZM87.79-15.43L87.79-15.43 87.79-13.92Q87.79-12.72 87.19-11.78 86.59-10.84 84.32-10.84L84.32-10.84 74.6-10.84 74.6-8.5Q74.6-7.15 75.3-6.02 75.99-4.88 77.63-4.88L77.63-4.88Q78.92-4.88 79.51-5.31 80.1-5.74 80.51-6.42L80.51-6.42Q80.78-6.84 81.17-7.15L81.17-7.15Q81.58-7.5 82.29-7.73 83-7.96 84.27-7.96L84.27-7.96Q85.59-7.96 86.52-7.46 87.44-6.96 87.44-5.52L87.44-5.52Q87.44-3.93 86.44-2.87 85.44-1.81 83.93-1.17L83.93-1.17Q82.41-0.54 80.64-0.27 78.87 0 77.34 0L77.34 0Q75.31-0.02 73.48-0.51 71.65-1 70.26-2.08L70.26-2.08Q68.84-3.15 68.01-4.88 67.18-6.62 67.18-9.13L67.18-9.13 67.18-14.84Q67.18-17.14 67.74-18.77L67.74-18.77Q68.3-20.39 69.17-21.46 70.04-22.53 71.14-23.14L71.14-23.14Q72.23-23.73 73.36-24.02L73.36-24.02Q74.48-24.32 75.49-24.39 76.51-24.46 77.24-24.46L77.24-24.46Q79.7-24.46 81.46-24.02L81.46-24.02Q83.2-23.58 84.37-22.88 85.54-22.17 86.22-21.24L86.22-21.24Q86.93-20.34 87.25-19.34L87.25-19.34Q87.59-18.36 87.69-17.33 87.79-16.31 87.79-15.43ZM74.6-16.21L74.6-16.21 74.6-14.5 80.71-14.5Q80.71-16.09 80.55-17.15 80.39-18.21 79.72-18.75 79.05-19.29 77.48-19.29L77.48-19.29Q75.7-19.29 75.15-18.32 74.6-17.36 74.6-16.21ZM112.05-28.61L112.05-28.61 112.05-5.52Q112.05-4 111.83-2.75 111.61-1.49 110.84-0.74 110.07 0 108.39 0L108.39 0Q106.8 0 106-0.62 105.19-1.25 104.91-2.19 104.63-3.13 104.63-4.1L104.63-4.1Q104.14-2.49 102.87-1.25 101.6 0 99.36 0L99.36 0Q98.01 0 96.67-0.44 95.33-0.88 94.25-1.9L94.25-1.9Q93.18-2.93 92.51-4.58 91.84-6.23 91.84-8.64L91.84-8.64 91.84-15.72Q91.84-18.16 92.51-19.81 93.18-21.46 94.25-22.49L94.25-22.49Q95.33-23.49 96.67-23.93 98.01-24.37 99.36-24.37L99.36-24.37Q101.6-24.37 102.87-23.14 104.14-21.92 104.63-20.26L104.63-20.26 104.63-28.61Q104.63-30.15 104.89-31.41 105.14-32.67 105.95-33.42 106.75-34.18 108.39-34.18L108.39-34.18Q109.98-34.18 110.76-33.42 111.54-32.67 111.79-31.4 112.05-30.13 112.05-28.61ZM99.36-15.19L99.36-15.19 99.36-9.28Q99.36-7.86 99.7-6.79 100.04-5.71 101.5-5.71L101.5-5.71Q103.31-5.71 103.99-7.47L103.99-7.47Q104.34-8.35 104.47-9.7 104.6-11.06 104.63-12.94L104.63-12.94Q104.63-14.09 104.36-15.42 104.09-16.75 103.41-17.7 102.72-18.65 101.5-18.65L101.5-18.65Q100.04-18.65 99.7-17.6 99.36-16.55 99.36-15.19Z" opacity="1" transform="matrix(1,0,0,1,0,0)" fill="black" class="wordmark-text-0" id="SvgjsPath9326"></path></svg></g></svg></g></svg></g></svg></g><g><svg viewBox="0 0 225.01283018830065 225.01283018830065" height="225.01283018830065" width="225.01283018830065"><g><svg></svg></g><g id="SvgjsG9325"><svg viewBox="0 0 225.01283018830065 225.01283018830065" height="225.01283018830065" width="225.01283018830065"><g><path d="M0 112.506c0-62.136 50.371-112.506 112.506-112.506 62.136 0 112.506 50.371 112.507 112.506 0 62.136-50.371 112.506-112.507 112.507-62.136 0-112.506-50.371-112.506-112.507zM112.506 213.794c55.94 0 101.288-45.348 101.288-101.288 0-55.94-45.348-101.288-101.288-101.287-55.94 0-101.288 45.348-101.287 101.287 0 55.94 45.348 101.288 101.287 101.288z" fill="black" stroke="transparent"></path></g><g transform="matrix(1,0,0,1,65.34193200044025,49.52711801520065)"><svg viewBox="0 0 94.32896618742015 125.95859415789936" height="125.95859415789936" width="94.32896618742015"><g><svg xmlns="http://www.w3.org/2000/svg" xmlns:xlink="http://www.w3.org/1999/xlink" version="1.0" x="0" y="0" viewBox="28.108222222222224 20.533663758742186 43.78477777777778 58.46633624126816" enable-background="new 0 0 100 100" xml:space="preserve" height="125.95859415789936" width="94.32896618742015" class="icon-dxe-0" data-fill-palette-color="accent" id="SvgjsSvg9324"><g fill="black"><g fill="black"><path d="M71.867 57.15C71.824 48.574 61.146 43.383 60.73 43.186 59.354 42.455 58.642 41.38 59.631 38.505 60.52 35.946 61.289 33.372 60.93 30.036 60.37 24.786 55.494 20.534 50.046 20.534H49.996C44.566 20.49 39.624 24.77 39.062 30.035 38.704 33.373 39.473 35.947 40.363 38.503 41.351 41.38 40.638 42.455 39.301 43.165 38.848 43.382 28.168 48.573 28.126 57.151 28.086 65.11 28.126 77.875 28.126 78.003A1 1 0 0 0 29.126 79H70.888A1 1 0 0 0 71.888 78.001C71.888 77.874 71.908 65.111 71.868 57.151M41.051 30.249C41.498 26.058 45.566 22.533 49.947 22.533H50C50.016 22.531 50.03 22.533 50.045 22.533 54.425 22.533 58.495 26.057 58.94 30.25 59.228 32.91 58.741 34.974 57.741 37.852 57.477 38.62 56.89 40.341 57.338 42.03 54.973 44.281 52.508 45.401 49.93 45.334 46.41 45.239 43.647 42.928 42.67 41.994 43.097 40.319 42.516 38.614 42.252 37.85 41.252 34.975 40.765 32.912 41.051 30.248M69.889 77H30.123C30.115 73.832 30.093 63.815 30.126 57.16 30.161 49.842 40.063 45.019 40.201 44.952A5.4 5.4 0 0 0 41.691 43.812C43.097 45.068 46.05 47.222 49.855 47.332 49.957 47.336 50.06 47.338 50.16 47.338 53.02 47.337 55.762 46.153 58.335 43.834 58.715 44.248 59.196 44.634 59.83 44.971 59.93 45.018 69.831 49.824 69.867 57.16 69.9 63.814 69.893 73.829 69.89 77" fill="black"></path><path d="M48.996 36L52.996 36.015H53A1 1 0 0 0 53.004 34.015L50 34.003V29A1 1 0 1 0 48 29V35A1 1 0 0 0 48.996 36" fill="black"></path><path d="M47.144 56.14A1 1 0 0 0 45.735 56.004L40.028 60.712A1 1 0 0 0 40.032 62.258L45.528 66.754A1 1 0 1 0 46.794 65.206L42.24 61.48 47.01 57.547A1 1 0 0 0 47.144 56.14" fill="black"></path><path d="M58.085 64.98H51.32A1 1 0 1 0 51.32 66.98H58.085A1 1 0 1 0 58.085 64.98" fill="black"></path></g></g></svg></g></svg></g></svg></g></svg></g></svg></g><defs><mask></mask></defs></svg><rect width="395.52" height="131.01883299096403" fill="black" stroke="none" visibility="hidden"></rect></g></mask></svg><rect width="395.52" height="131.01883299096403" fill="black" stroke="none" visibility="hidden"></rect></g></mask><linearGradient x1="0" x2="1" y1="0.578" y2="0.595" id="053d7aa6-a05a-4073-834c-f33b9a6e5c76"><stop stop-color="#6ee2f5" offset="0"></stop><stop stop-color="#6454f0" offset="1"></stop></linearGradient><rect width="395.52" height="131.01893186768436" fill="url(#053d7aa6-a05a-4073-834c-f33b9a6e5c76)" mask="url(#9ba70e26-ddb2-45ad-acf3-275ee53f8d78)" data-fill-palette-color="accent"></rect><mask id="702d822e-dd04-4e62-b525-81d53387d16d"><g id="SvgjsG9356"><svg viewBox="0 0 395.52 131.01883299096403" height="131.01883299096403" width="395.52"><g><svg viewBox="0 0 679.269327656235 225.01283018830065" height="131.01883299096403" width="395.52"><g transform="matrix(1,0,0,1,283.7493276562349,50.305579909787824)"><svg viewBox="0 0 395.52 124.40167036872501" height="124.40167036872501" width="395.52"><g id="SvgjsG9355"><svg viewBox="0 0 395.52 124.40167036872501" height="124.40167036872501" width="395.52" id="SvgjsSvg9354"><g><svg viewBox="0 0 395.52 124.40167036872501" height="124.40167036872501" width="395.52"><g transform="matrix(1,0,0,1,0,0)"><svg width="395.52" viewBox="2.15 -34.38 109.89999999999999 34.580000000000005" height="124.40167036872501" data-palette-color="url(#4dc2b6c3-5aef-4c58-9e6d-41aaa9a74f93)"></svg></g></svg></g></svg></g></svg></g><g><svg viewBox="0 0 225.01283018830065 225.01283018830065" height="225.01283018830065" width="225.01283018830065"><g><svg></svg></g><g id="SvgjsG9353"><svg viewBox="0 0 225.01283018830065 225.01283018830065" height="225.01283018830065" width="225.01283018830065"><g><path d="M0 112.506c0-62.136 50.371-112.506 112.506-112.506 62.136 0 112.506 50.371 112.507 112.506 0 62.136-50.371 112.506-112.507 112.507-62.136 0-112.506-50.371-112.506-112.507zM112.506 213.794c55.94 0 101.288-45.348 101.288-101.288 0-55.94-45.348-101.288-101.288-101.287-55.94 0-101.288 45.348-101.287 101.287 0 55.94 45.348 101.288 101.287 101.288z" fill="white" stroke="transparent"></path></g><g transform="matrix(1,0,0,1,65.34193200044025,49.52711801520065)"><svg viewBox="0 0 94.32896618742015 125.95859415789936" height="125.95859415789936" width="94.32896618742015"><g><svg xmlns="http://www.w3.org/2000/svg" xmlns:xlink="http://www.w3.org/1999/xlink" version="1.0" x="0" y="0" viewBox="28.108222222222224 20.533663758742186 43.78477777777778 58.46633624126816" enable-background="new 0 0 100 100" xml:space="preserve" height="125.95859415789936" width="94.32896618742015" class="icon-dxe-0" data-fill-palette-color="accent" id="SvgjsSvg9352"></svg></g></svg></g></svg></g></svg></g></svg></g><defs><mask></mask></defs><mask><g id="SvgjsG9351"><svg viewBox="0 0 395.52 131.01883299096403" height="131.01883299096403" width="395.52"><g><svg viewBox="0 0 679.269327656235 225.01283018830065" height="131.01883299096403" width="395.52"><g transform="matrix(1,0,0,1,283.7493276562349,50.305579909787824)"><svg viewBox="0 0 395.52 124.40167036872501" height="124.40167036872501" width="395.52"><g id="SvgjsG9350"><svg viewBox="0 0 395.52 124.40167036872501" height="124.40167036872501" width="395.52" id="SvgjsSvg9349"><g><svg viewBox="0 0 395.52 124.40167036872501" height="124.40167036872501" width="395.52"><g transform="matrix(1,0,0,1,0,0)"><svg width="395.52" viewBox="2.15 -34.38 109.89999999999999 34.580000000000005" height="124.40167036872501" data-palette-color="url(#4dc2b6c3-5aef-4c58-9e6d-41aaa9a74f93)"><path d="M9.72-25.59L9.72-25.59Q9.74-24.56 10.31-23.74 10.89-22.92 11.84-22.19L11.84-22.19Q12.62-21.58 14.01-20.75 15.41-19.92 16.43-19.31L16.43-19.31Q17.68-18.55 18.87-17.64 20.07-16.72 21.02-15.58L21.02-15.58Q21.97-14.43 22.56-12.99 23.14-11.55 23.19-9.72L23.19-9.72 23.19-9.52Q23.19-7.57 22.71-6.03L22.71-6.03Q21.73-3.13 19.53-1.71L19.53-1.71Q18.41-0.98 17.29-0.59L17.29-0.59Q16.09-0.17 14.88 0 13.67 0.17 12.6 0.2L12.6 0.2 12.35 0.2Q10.33 0.2 8.72-0.22L8.72-0.22Q7.15-0.63 6.03-1.33 4.91-2.03 4.17-2.93L4.17-2.93Q3.42-3.83 2.98-4.81L2.98-4.81Q2.54-5.76 2.34-6.71 2.15-7.67 2.15-8.5L2.15-8.5Q2.15-10.16 3.16-10.99 4.17-11.82 5.62-11.82L5.62-11.82Q7.01-11.82 8.19-10.97 9.38-10.13 9.42-8.54L9.42-8.54Q9.47-6.71 10.25-6.04 11.04-5.37 12.5-5.37L12.5-5.37Q14.09-5.42 14.98-6.18 15.87-6.93 15.87-8.89L15.87-8.89Q15.87-10.57 14.88-11.87 13.89-13.16 12.38-14.25 10.86-15.33 9.23-16.36L9.23-16.36Q7.52-17.46 6.01-18.66 4.49-19.87 3.54-21.41 2.59-22.95 2.54-25L2.54-25 2.54-25.39Q2.56-28 3.23-29.74 3.91-31.47 5.22-32.5L5.22-32.5Q6.52-33.52 8.42-33.95 10.33-34.38 12.79-34.38L12.79-34.38 13.43-34.38Q15.63-34.38 17.24-33.89L17.24-33.89Q18.8-33.4 19.84-32.64 20.87-31.88 21.48-30.93L21.48-30.93Q22.07-30 22.36-29.05L22.36-29.05Q22.66-28.13 22.73-27.32 22.8-26.51 22.8-26.03L22.8-26.03Q22.8-24.58 21.77-23.69 20.73-22.8 19.24-22.8L19.24-22.8Q18.12-22.8 17.04-23.63 15.97-24.46 15.97-25.44L15.97-25.44Q15.97-27.44 15.25-28.22 14.53-29 13.13-29L13.13-29Q11.52-29 10.62-28.42 9.72-27.83 9.72-25.59ZM47.02-18.85L47.02-18.85 47.02-5.52Q47.02-4 46.8-2.75 46.58-1.49 45.81-0.74 45.04 0 43.36 0L43.36 0Q41.77 0 40.96-0.62 40.16-1.25 39.88-2.19 39.6-3.13 39.6-4.1L39.6-4.1Q39.11-2.49 37.84-1.25 36.57 0 34.32 0L34.32 0Q32.98 0 31.64-0.44 30.3-0.88 29.22-1.9L29.22-1.9Q28.15-2.93 27.48-4.58 26.8-6.23 26.8-8.64L26.8-8.64 26.8-15.72Q26.8-18.16 27.48-19.81 28.15-21.46 29.22-22.49L29.22-22.49Q30.3-23.49 31.64-23.93 32.98-24.37 34.32-24.37L34.32-24.37Q36.57-24.37 37.84-23.14 39.11-21.92 39.6-20.26L39.6-20.26Q39.6-22.51 40.7-23.46 41.79-24.41 43.36-24.41L43.36-24.41Q44.94-24.41 45.73-23.66 46.51-22.9 46.76-21.63 47.02-20.36 47.02-18.85ZM34.32-15.19L34.32-15.19 34.32-9.28Q34.32-7.86 34.67-6.79 35.01-5.71 36.47-5.71L36.47-5.71Q38.28-5.71 38.96-7.47L38.96-7.47Q39.3-8.35 39.44-9.7 39.57-11.06 39.6-12.94L39.6-12.94Q39.6-14.09 39.33-15.42 39.06-16.75 38.38-17.7 37.69-18.65 36.47-18.65L36.47-18.65Q35.01-18.65 34.67-17.6 34.32-16.55 34.32-15.19ZM60.88-30.47L60.88-30.47Q60.88-28.59 59.91-27.67 58.93-26.76 57.17-26.76L57.17-26.76Q55.41-26.76 54.44-27.67 53.46-28.59 53.46-30.47L53.46-30.47Q53.46-32.42 54.44-33.3 55.41-34.18 57.17-34.18L57.17-34.18Q59.05-34.18 59.97-33.3 60.88-32.42 60.88-30.47ZM53.41-5.47L53.41-5.47 53.41-18.95Q53.41-20.41 53.67-21.66 53.93-22.9 54.72-23.66 55.51-24.41 57.12-24.41L57.12-24.41Q58.74-24.41 59.53-23.66 60.32-22.9 60.58-21.66 60.83-20.41 60.83-18.95L60.83-18.95 60.83-5.47Q60.83-3.98 60.58-2.73 60.32-1.49 59.53-0.74 58.74 0 57.12 0L57.12 0Q55.51 0 54.72-0.74 53.93-1.49 53.67-2.73 53.41-3.98 53.41-5.47ZM87.79-15.43L87.79-15.43 87.79-13.92Q87.79-12.72 87.19-11.78 86.59-10.84 84.32-10.84L84.32-10.84 74.6-10.84 74.6-8.5Q74.6-7.15 75.3-6.02 75.99-4.88 77.63-4.88L77.63-4.88Q78.92-4.88 79.51-5.31 80.1-5.74 80.51-6.42L80.51-6.42Q80.78-6.84 81.17-7.15L81.17-7.15Q81.58-7.5 82.29-7.73 83-7.96 84.27-7.96L84.27-7.96Q85.59-7.96 86.52-7.46 87.44-6.96 87.44-5.52L87.44-5.52Q87.44-3.93 86.44-2.87 85.44-1.81 83.93-1.17L83.93-1.17Q82.41-0.54 80.64-0.27 78.87 0 77.34 0L77.34 0Q75.31-0.02 73.48-0.51 71.65-1 70.26-2.08L70.26-2.08Q68.84-3.15 68.01-4.88 67.18-6.62 67.18-9.13L67.18-9.13 67.18-14.84Q67.18-17.14 67.74-18.77L67.74-18.77Q68.3-20.39 69.17-21.46 70.04-22.53 71.14-23.14L71.14-23.14Q72.23-23.73 73.36-24.02L73.36-24.02Q74.48-24.32 75.49-24.39 76.51-24.46 77.24-24.46L77.24-24.46Q79.7-24.46 81.46-24.02L81.46-24.02Q83.2-23.58 84.37-22.88 85.54-22.17 86.22-21.24L86.22-21.24Q86.93-20.34 87.25-19.34L87.25-19.34Q87.59-18.36 87.69-17.33 87.79-16.31 87.79-15.43ZM74.6-16.21L74.6-16.21 74.6-14.5 80.71-14.5Q80.71-16.09 80.55-17.15 80.39-18.21 79.72-18.75 79.05-19.29 77.48-19.29L77.48-19.29Q75.7-19.29 75.15-18.32 74.6-17.36 74.6-16.21ZM112.05-28.61L112.05-28.61 112.05-5.52Q112.05-4 111.83-2.75 111.61-1.49 110.84-0.74 110.07 0 108.39 0L108.39 0Q106.8 0 106-0.62 105.19-1.25 104.91-2.19 104.63-3.13 104.63-4.1L104.63-4.1Q104.14-2.49 102.87-1.25 101.6 0 99.36 0L99.36 0Q98.01 0 96.67-0.44 95.33-0.88 94.25-1.9L94.25-1.9Q93.18-2.93 92.51-4.58 91.84-6.23 91.84-8.64L91.84-8.64 91.84-15.72Q91.84-18.16 92.51-19.81 93.18-21.46 94.25-22.49L94.25-22.49Q95.33-23.49 96.67-23.93 98.01-24.37 99.36-24.37L99.36-24.37Q101.6-24.37 102.87-23.14 104.14-21.92 104.63-20.26L104.63-20.26 104.63-28.61Q104.63-30.15 104.89-31.41 105.14-32.67 105.95-33.42 106.75-34.18 108.39-34.18L108.39-34.18Q109.98-34.18 110.76-33.42 111.54-32.67 111.79-31.4 112.05-30.13 112.05-28.61ZM99.36-15.19L99.36-15.19 99.36-9.28Q99.36-7.86 99.7-6.79 100.04-5.71 101.5-5.71L101.5-5.71Q103.31-5.71 103.99-7.47L103.99-7.47Q104.34-8.35 104.47-9.7 104.6-11.06 104.63-12.94L104.63-12.94Q104.63-14.09 104.36-15.42 104.09-16.75 103.41-17.7 102.72-18.65 101.5-18.65L101.5-18.65Q100.04-18.65 99.7-17.6 99.36-16.55 99.36-15.19Z" opacity="1" transform="matrix(1,0,0,1,0,0)" fill="black" class="wordmark-text-0" id="SvgjsPath9348"></path></svg></g></svg></g></svg></g></svg></g><g><svg viewBox="0 0 225.01283018830065 225.01283018830065" height="225.01283018830065" width="225.01283018830065"><g><svg></svg></g><g id="SvgjsG9347"><svg viewBox="0 0 225.01283018830065 225.01283018830065" height="225.01283018830065" width="225.01283018830065"><g><path d="M0 112.506c0-62.136 50.371-112.506 112.506-112.506 62.136 0 112.506 50.371 112.507 112.506 0 62.136-50.371 112.506-112.507 112.507-62.136 0-112.506-50.371-112.506-112.507zM112.506 213.794c55.94 0 101.288-45.348 101.288-101.288 0-55.94-45.348-101.288-101.288-101.287-55.94 0-101.288 45.348-101.287 101.287 0 55.94 45.348 101.288 101.287 101.288z" fill="black" stroke="transparent"></path></g><g transform="matrix(1,0,0,1,65.34193200044025,49.52711801520065)"><svg viewBox="0 0 94.32896618742015 125.95859415789936" height="125.95859415789936" width="94.32896618742015"><g><svg xmlns="http://www.w3.org/2000/svg" xmlns:xlink="http://www.w3.org/1999/xlink" version="1.0" x="0" y="0" viewBox="28.108222222222224 20.533663758742186 43.78477777777778 58.46633624126816" enable-background="new 0 0 100 100" xml:space="preserve" height="125.95859415789936" width="94.32896618742015" class="icon-dxe-0" data-fill-palette-color="accent" id="SvgjsSvg9346"><g fill="black"><g fill="black"><path d="M71.867 57.15C71.824 48.574 61.146 43.383 60.73 43.186 59.354 42.455 58.642 41.38 59.631 38.505 60.52 35.946 61.289 33.372 60.93 30.036 60.37 24.786 55.494 20.534 50.046 20.534H49.996C44.566 20.49 39.624 24.77 39.062 30.035 38.704 33.373 39.473 35.947 40.363 38.503 41.351 41.38 40.638 42.455 39.301 43.165 38.848 43.382 28.168 48.573 28.126 57.151 28.086 65.11 28.126 77.875 28.126 78.003A1 1 0 0 0 29.126 79H70.888A1 1 0 0 0 71.888 78.001C71.888 77.874 71.908 65.111 71.868 57.151M41.051 30.249C41.498 26.058 45.566 22.533 49.947 22.533H50C50.016 22.531 50.03 22.533 50.045 22.533 54.425 22.533 58.495 26.057 58.94 30.25 59.228 32.91 58.741 34.974 57.741 37.852 57.477 38.62 56.89 40.341 57.338 42.03 54.973 44.281 52.508 45.401 49.93 45.334 46.41 45.239 43.647 42.928 42.67 41.994 43.097 40.319 42.516 38.614 42.252 37.85 41.252 34.975 40.765 32.912 41.051 30.248M69.889 77H30.123C30.115 73.832 30.093 63.815 30.126 57.16 30.161 49.842 40.063 45.019 40.201 44.952A5.4 5.4 0 0 0 41.691 43.812C43.097 45.068 46.05 47.222 49.855 47.332 49.957 47.336 50.06 47.338 50.16 47.338 53.02 47.337 55.762 46.153 58.335 43.834 58.715 44.248 59.196 44.634 59.83 44.971 59.93 45.018 69.831 49.824 69.867 57.16 69.9 63.814 69.893 73.829 69.89 77" fill="black"></path><path d="M48.996 36L52.996 36.015H53A1 1 0 0 0 53.004 34.015L50 34.003V29A1 1 0 1 0 48 29V35A1 1 0 0 0 48.996 36" fill="black"></path><path d="M47.144 56.14A1 1 0 0 0 45.735 56.004L40.028 60.712A1 1 0 0 0 40.032 62.258L45.528 66.754A1 1 0 1 0 46.794 65.206L42.24 61.48 47.01 57.547A1 1 0 0 0 47.144 56.14" fill="black"></path><path d="M58.085 64.98H51.32A1 1 0 1 0 51.32 66.98H58.085A1 1 0 1 0 58.085 64.98" fill="black"></path></g></g></svg></g></svg></g></svg></g></svg></g></svg></g><defs><mask></mask></defs></svg><rect width="395.52" height="131.01883299096403" fill="black" stroke="none" visibility="hidden"></rect></g></mask><mask><g id="SvgjsG9345"><svg viewBox="0 0 395.52 131.01883299096403" height="131.01883299096403" width="395.52"><g><svg viewBox="0 0 679.269327656235 225.01283018830065" height="131.01883299096403" width="395.52"><g transform="matrix(1,0,0,1,283.7493276562349,50.305579909787824)"><svg viewBox="0 0 395.52 124.40167036872501" height="124.40167036872501" width="395.52"><g id="SvgjsG9344"><svg viewBox="0 0 395.52 124.40167036872501" height="124.40167036872501" width="395.52" id="SvgjsSvg9343"><g><svg viewBox="0 0 395.52 124.40167036872501" height="124.40167036872501" width="395.52"><g transform="matrix(1,0,0,1,0,0)"><svg width="395.52" viewBox="2.15 -34.38 109.89999999999999 34.580000000000005" height="124.40167036872501" data-palette-color="url(#4dc2b6c3-5aef-4c58-9e6d-41aaa9a74f93)"></svg></g></svg></g></svg></g></svg></g><g><svg viewBox="0 0 225.01283018830065 225.01283018830065" height="225.01283018830065" width="225.01283018830065"><g><svg></svg></g><g id="SvgjsG9342"><svg viewBox="0 0 225.01283018830065 225.01283018830065" height="225.01283018830065" width="225.01283018830065"><g><path d="M0 112.506c0-62.136 50.371-112.506 112.506-112.506 62.136 0 112.506 50.371 112.507 112.506 0 62.136-50.371 112.506-112.507 112.507-62.136 0-112.506-50.371-112.506-112.507zM112.506 213.794c55.94 0 101.288-45.348 101.288-101.288 0-55.94-45.348-101.288-101.288-101.287-55.94 0-101.288 45.348-101.287 101.287 0 55.94 45.348 101.288 101.287 101.288z" fill="black" stroke="transparent"></path></g><g transform="matrix(1,0,0,1,65.34193200044025,49.52711801520065)"><svg viewBox="0 0 94.32896618742015 125.95859415789936" height="125.95859415789936" width="94.32896618742015"><g><svg xmlns="http://www.w3.org/2000/svg" xmlns:xlink="http://www.w3.org/1999/xlink" version="1.0" x="0" y="0" viewBox="28.108222222222224 20.533663758742186 43.78477777777778 58.46633624126816" enable-background="new 0 0 100 100" xml:space="preserve" height="125.95859415789936" width="94.32896618742015" class="icon-dxe-0" data-fill-palette-color="accent" id="SvgjsSvg9341"><g fill="black"><g fill="black"><path d="M71.867 57.15C71.824 48.574 61.146 43.383 60.73 43.186 59.354 42.455 58.642 41.38 59.631 38.505 60.52 35.946 61.289 33.372 60.93 30.036 60.37 24.786 55.494 20.534 50.046 20.534H49.996C44.566 20.49 39.624 24.77 39.062 30.035 38.704 33.373 39.473 35.947 40.363 38.503 41.351 41.38 40.638 42.455 39.301 43.165 38.848 43.382 28.168 48.573 28.126 57.151 28.086 65.11 28.126 77.875 28.126 78.003A1 1 0 0 0 29.126 79H70.888A1 1 0 0 0 71.888 78.001C71.888 77.874 71.908 65.111 71.868 57.151M41.051 30.249C41.498 26.058 45.566 22.533 49.947 22.533H50C50.016 22.531 50.03 22.533 50.045 22.533 54.425 22.533 58.495 26.057 58.94 30.25 59.228 32.91 58.741 34.974 57.741 37.852 57.477 38.62 56.89 40.341 57.338 42.03 54.973 44.281 52.508 45.401 49.93 45.334 46.41 45.239 43.647 42.928 42.67 41.994 43.097 40.319 42.516 38.614 42.252 37.85 41.252 34.975 40.765 32.912 41.051 30.248M69.889 77H30.123C30.115 73.832 30.093 63.815 30.126 57.16 30.161 49.842 40.063 45.019 40.201 44.952A5.4 5.4 0 0 0 41.691 43.812C43.097 45.068 46.05 47.222 49.855 47.332 49.957 47.336 50.06 47.338 50.16 47.338 53.02 47.337 55.762 46.153 58.335 43.834 58.715 44.248 59.196 44.634 59.83 44.971 59.93 45.018 69.831 49.824 69.867 57.16 69.9 63.814 69.893 73.829 69.89 77" fill="black"></path><path d="M48.996 36L52.996 36.015H53A1 1 0 0 0 53.004 34.015L50 34.003V29A1 1 0 1 0 48 29V35A1 1 0 0 0 48.996 36" fill="black"></path><path d="M47.144 56.14A1 1 0 0 0 45.735 56.004L40.028 60.712A1 1 0 0 0 40.032 62.258L45.528 66.754A1 1 0 1 0 46.794 65.206L42.24 61.48 47.01 57.547A1 1 0 0 0 47.144 56.14" fill="black"></path><path d="M58.085 64.98H51.32A1 1 0 1 0 51.32 66.98H58.085A1 1 0 1 0 58.085 64.98" fill="black"></path></g></g></svg></g></svg></g></svg></g></svg></g></svg></g><defs><mask></mask></defs><mask><g id="SvgjsG9340"><svg viewBox="0 0 395.52 131.01883299096403" height="131.01883299096403" width="395.52"><g><svg viewBox="0 0 679.269327656235 225.01283018830065" height="131.01883299096403" width="395.52"><g transform="matrix(1,0,0,1,283.7493276562349,50.305579909787824)"><svg viewBox="0 0 395.52 124.40167036872501" height="124.40167036872501" width="395.52"><g id="SvgjsG9339"><svg viewBox="0 0 395.52 124.40167036872501" height="124.40167036872501" width="395.52" id="SvgjsSvg9338"><g><svg viewBox="0 0 395.52 124.40167036872501" height="124.40167036872501" width="395.52"><g transform="matrix(1,0,0,1,0,0)"><svg width="395.52" viewBox="2.15 -34.38 109.89999999999999 34.580000000000005" height="124.40167036872501" data-palette-color="url(#4dc2b6c3-5aef-4c58-9e6d-41aaa9a74f93)"><path d="M9.72-25.59L9.72-25.59Q9.74-24.56 10.31-23.74 10.89-22.92 11.84-22.19L11.84-22.19Q12.62-21.58 14.01-20.75 15.41-19.92 16.43-19.31L16.43-19.31Q17.68-18.55 18.87-17.64 20.07-16.72 21.02-15.58L21.02-15.58Q21.97-14.43 22.56-12.99 23.14-11.55 23.19-9.72L23.19-9.72 23.19-9.52Q23.19-7.57 22.71-6.03L22.71-6.03Q21.73-3.13 19.53-1.71L19.53-1.71Q18.41-0.98 17.29-0.59L17.29-0.59Q16.09-0.17 14.88 0 13.67 0.17 12.6 0.2L12.6 0.2 12.35 0.2Q10.33 0.2 8.72-0.22L8.72-0.22Q7.15-0.63 6.03-1.33 4.91-2.03 4.17-2.93L4.17-2.93Q3.42-3.83 2.98-4.81L2.98-4.81Q2.54-5.76 2.34-6.71 2.15-7.67 2.15-8.5L2.15-8.5Q2.15-10.16 3.16-10.99 4.17-11.82 5.62-11.82L5.62-11.82Q7.01-11.82 8.19-10.97 9.38-10.13 9.42-8.54L9.42-8.54Q9.47-6.71 10.25-6.04 11.04-5.37 12.5-5.37L12.5-5.37Q14.09-5.42 14.98-6.18 15.87-6.93 15.87-8.89L15.87-8.89Q15.87-10.57 14.88-11.87 13.89-13.16 12.38-14.25 10.86-15.33 9.23-16.36L9.23-16.36Q7.52-17.46 6.01-18.66 4.49-19.87 3.54-21.41 2.59-22.95 2.54-25L2.54-25 2.54-25.39Q2.56-28 3.23-29.74 3.91-31.47 5.22-32.5L5.22-32.5Q6.52-33.52 8.42-33.95 10.33-34.38 12.79-34.38L12.79-34.38 13.43-34.38Q15.63-34.38 17.24-33.89L17.24-33.89Q18.8-33.4 19.84-32.64 20.87-31.88 21.48-30.93L21.48-30.93Q22.07-30 22.36-29.05L22.36-29.05Q22.66-28.13 22.73-27.32 22.8-26.51 22.8-26.03L22.8-26.03Q22.8-24.58 21.77-23.69 20.73-22.8 19.24-22.8L19.24-22.8Q18.12-22.8 17.04-23.63 15.97-24.46 15.97-25.44L15.97-25.44Q15.97-27.44 15.25-28.22 14.53-29 13.13-29L13.13-29Q11.52-29 10.62-28.42 9.72-27.83 9.72-25.59ZM47.02-18.85L47.02-18.85 47.02-5.52Q47.02-4 46.8-2.75 46.58-1.49 45.81-0.74 45.04 0 43.36 0L43.36 0Q41.77 0 40.96-0.62 40.16-1.25 39.88-2.19 39.6-3.13 39.6-4.1L39.6-4.1Q39.11-2.49 37.84-1.25 36.57 0 34.32 0L34.32 0Q32.98 0 31.64-0.44 30.3-0.88 29.22-1.9L29.22-1.9Q28.15-2.93 27.48-4.58 26.8-6.23 26.8-8.64L26.8-8.64 26.8-15.72Q26.8-18.16 27.48-19.81 28.15-21.46 29.22-22.49L29.22-22.49Q30.3-23.49 31.64-23.93 32.98-24.37 34.32-24.37L34.32-24.37Q36.57-24.37 37.84-23.14 39.11-21.92 39.6-20.26L39.6-20.26Q39.6-22.51 40.7-23.46 41.79-24.41 43.36-24.41L43.36-24.41Q44.94-24.41 45.73-23.66 46.51-22.9 46.76-21.63 47.02-20.36 47.02-18.85ZM34.32-15.19L34.32-15.19 34.32-9.28Q34.32-7.86 34.67-6.79 35.01-5.71 36.47-5.71L36.47-5.71Q38.28-5.71 38.96-7.47L38.96-7.47Q39.3-8.35 39.44-9.7 39.57-11.06 39.6-12.94L39.6-12.94Q39.6-14.09 39.33-15.42 39.06-16.75 38.38-17.7 37.69-18.65 36.47-18.65L36.47-18.65Q35.01-18.65 34.67-17.6 34.32-16.55 34.32-15.19ZM60.88-30.47L60.88-30.47Q60.88-28.59 59.91-27.67 58.93-26.76 57.17-26.76L57.17-26.76Q55.41-26.76 54.44-27.67 53.46-28.59 53.46-30.47L53.46-30.47Q53.46-32.42 54.44-33.3 55.41-34.18 57.17-34.18L57.17-34.18Q59.05-34.18 59.97-33.3 60.88-32.42 60.88-30.47ZM53.41-5.47L53.41-5.47 53.41-18.95Q53.41-20.41 53.67-21.66 53.93-22.9 54.72-23.66 55.51-24.41 57.12-24.41L57.12-24.41Q58.74-24.41 59.53-23.66 60.32-22.9 60.58-21.66 60.83-20.41 60.83-18.95L60.83-18.95 60.83-5.47Q60.83-3.98 60.58-2.73 60.32-1.49 59.53-0.74 58.74 0 57.12 0L57.12 0Q55.51 0 54.72-0.74 53.93-1.49 53.67-2.73 53.41-3.98 53.41-5.47ZM87.79-15.43L87.79-15.43 87.79-13.92Q87.79-12.72 87.19-11.78 86.59-10.84 84.32-10.84L84.32-10.84 74.6-10.84 74.6-8.5Q74.6-7.15 75.3-6.02 75.99-4.88 77.63-4.88L77.63-4.88Q78.92-4.88 79.51-5.31 80.1-5.74 80.51-6.42L80.51-6.42Q80.78-6.84 81.17-7.15L81.17-7.15Q81.58-7.5 82.29-7.73 83-7.96 84.27-7.96L84.27-7.96Q85.59-7.96 86.52-7.46 87.44-6.96 87.44-5.52L87.44-5.52Q87.44-3.93 86.44-2.87 85.44-1.81 83.93-1.17L83.93-1.17Q82.41-0.54 80.64-0.27 78.87 0 77.34 0L77.34 0Q75.31-0.02 73.48-0.51 71.65-1 70.26-2.08L70.26-2.08Q68.84-3.15 68.01-4.88 67.18-6.62 67.18-9.13L67.18-9.13 67.18-14.84Q67.18-17.14 67.74-18.77L67.74-18.77Q68.3-20.39 69.17-21.46 70.04-22.53 71.14-23.14L71.14-23.14Q72.23-23.73 73.36-24.02L73.36-24.02Q74.48-24.32 75.49-24.39 76.51-24.46 77.24-24.46L77.24-24.46Q79.7-24.46 81.46-24.02L81.46-24.02Q83.2-23.58 84.37-22.88 85.54-22.17 86.22-21.24L86.22-21.24Q86.93-20.34 87.25-19.34L87.25-19.34Q87.59-18.36 87.69-17.33 87.79-16.31 87.79-15.43ZM74.6-16.21L74.6-16.21 74.6-14.5 80.71-14.5Q80.71-16.09 80.55-17.15 80.39-18.21 79.72-18.75 79.05-19.29 77.48-19.29L77.48-19.29Q75.7-19.29 75.15-18.32 74.6-17.36 74.6-16.21ZM112.05-28.61L112.05-28.61 112.05-5.52Q112.05-4 111.83-2.75 111.61-1.49 110.84-0.74 110.07 0 108.39 0L108.39 0Q106.8 0 106-0.62 105.19-1.25 104.91-2.19 104.63-3.13 104.63-4.1L104.63-4.1Q104.14-2.49 102.87-1.25 101.6 0 99.36 0L99.36 0Q98.01 0 96.67-0.44 95.33-0.88 94.25-1.9L94.25-1.9Q93.18-2.93 92.51-4.58 91.84-6.23 91.84-8.64L91.84-8.64 91.84-15.72Q91.84-18.16 92.51-19.81 93.18-21.46 94.25-22.49L94.25-22.49Q95.33-23.49 96.67-23.93 98.01-24.37 99.36-24.37L99.36-24.37Q101.6-24.37 102.87-23.14 104.14-21.92 104.63-20.26L104.63-20.26 104.63-28.61Q104.63-30.15 104.89-31.41 105.14-32.67 105.95-33.42 106.75-34.18 108.39-34.18L108.39-34.18Q109.98-34.18 110.76-33.42 111.54-32.67 111.79-31.4 112.05-30.13 112.05-28.61ZM99.36-15.19L99.36-15.19 99.36-9.28Q99.36-7.86 99.7-6.79 100.04-5.71 101.5-5.71L101.5-5.71Q103.31-5.71 103.99-7.47L103.99-7.47Q104.34-8.35 104.47-9.7 104.6-11.06 104.63-12.94L104.63-12.94Q104.63-14.09 104.36-15.42 104.09-16.75 103.41-17.7 102.72-18.65 101.5-18.65L101.5-18.65Q100.04-18.65 99.7-17.6 99.36-16.55 99.36-15.19Z" opacity="1" transform="matrix(1,0,0,1,0,0)" fill="black" class="wordmark-text-0" id="SvgjsPath9337"></path></svg></g></svg></g></svg></g></svg></g><g><svg viewBox="0 0 225.01283018830065 225.01283018830065" height="225.01283018830065" width="225.01283018830065"><g><svg></svg></g><g id="SvgjsG9336"><svg viewBox="0 0 225.01283018830065 225.01283018830065" height="225.01283018830065" width="225.01283018830065"><g><path d="M0 112.506c0-62.136 50.371-112.506 112.506-112.506 62.136 0 112.506 50.371 112.507 112.506 0 62.136-50.371 112.506-112.507 112.507-62.136 0-112.506-50.371-112.506-112.507zM112.506 213.794c55.94 0 101.288-45.348 101.288-101.288 0-55.94-45.348-101.288-101.288-101.287-55.94 0-101.288 45.348-101.287 101.287 0 55.94 45.348 101.288 101.287 101.288z" fill="black" stroke="transparent"></path></g><g transform="matrix(1,0,0,1,65.34193200044025,49.52711801520065)"><svg viewBox="0 0 94.32896618742015 125.95859415789936" height="125.95859415789936" width="94.32896618742015"><g><svg xmlns="http://www.w3.org/2000/svg" xmlns:xlink="http://www.w3.org/1999/xlink" version="1.0" x="0" y="0" viewBox="28.108222222222224 20.533663758742186 43.78477777777778 58.46633624126816" enable-background="new 0 0 100 100" xml:space="preserve" height="125.95859415789936" width="94.32896618742015" class="icon-dxe-0" data-fill-palette-color="accent" id="SvgjsSvg9335"><g fill="black"><g fill="black"><path d="M71.867 57.15C71.824 48.574 61.146 43.383 60.73 43.186 59.354 42.455 58.642 41.38 59.631 38.505 60.52 35.946 61.289 33.372 60.93 30.036 60.37 24.786 55.494 20.534 50.046 20.534H49.996C44.566 20.49 39.624 24.77 39.062 30.035 38.704 33.373 39.473 35.947 40.363 38.503 41.351 41.38 40.638 42.455 39.301 43.165 38.848 43.382 28.168 48.573 28.126 57.151 28.086 65.11 28.126 77.875 28.126 78.003A1 1 0 0 0 29.126 79H70.888A1 1 0 0 0 71.888 78.001C71.888 77.874 71.908 65.111 71.868 57.151M41.051 30.249C41.498 26.058 45.566 22.533 49.947 22.533H50C50.016 22.531 50.03 22.533 50.045 22.533 54.425 22.533 58.495 26.057 58.94 30.25 59.228 32.91 58.741 34.974 57.741 37.852 57.477 38.62 56.89 40.341 57.338 42.03 54.973 44.281 52.508 45.401 49.93 45.334 46.41 45.239 43.647 42.928 42.67 41.994 43.097 40.319 42.516 38.614 42.252 37.85 41.252 34.975 40.765 32.912 41.051 30.248M69.889 77H30.123C30.115 73.832 30.093 63.815 30.126 57.16 30.161 49.842 40.063 45.019 40.201 44.952A5.4 5.4 0 0 0 41.691 43.812C43.097 45.068 46.05 47.222 49.855 47.332 49.957 47.336 50.06 47.338 50.16 47.338 53.02 47.337 55.762 46.153 58.335 43.834 58.715 44.248 59.196 44.634 59.83 44.971 59.93 45.018 69.831 49.824 69.867 57.16 69.9 63.814 69.893 73.829 69.89 77" fill="black"></path><path d="M48.996 36L52.996 36.015H53A1 1 0 0 0 53.004 34.015L50 34.003V29A1 1 0 1 0 48 29V35A1 1 0 0 0 48.996 36" fill="black"></path><path d="M47.144 56.14A1 1 0 0 0 45.735 56.004L40.028 60.712A1 1 0 0 0 40.032 62.258L45.528 66.754A1 1 0 1 0 46.794 65.206L42.24 61.48 47.01 57.547A1 1 0 0 0 47.144 56.14" fill="black"></path><path d="M58.085 64.98H51.32A1 1 0 1 0 51.32 66.98H58.085A1 1 0 1 0 58.085 64.98" fill="black"></path></g></g></svg></g></svg></g></svg></g></svg></g></svg></g><defs><mask></mask></defs></svg><rect width="395.52" height="131.01883299096403" fill="black" stroke="none" visibility="hidden"></rect></g></mask></svg><rect width="395.52" height="131.01883299096403" fill="black" stroke="none" visibility="hidden"></rect></g></mask></svg><rect width="395.52" height="131.01883299096403" fill="black" stroke="none" visibility="hidden"></rect></g></mask><linearGradient x1="0" x2="1" y1="0.578" y2="0.595" id="0f68a234-bdf8-419f-abe4-7967c3b96335"><stop stop-color="#6ee2f5" offset="0"></stop><stop stop-color="#6454f0" offset="1"></stop></linearGradient></svg><rect width="395.52" height="131.01883299096403" fill="none" stroke="none" visibility="hidden"></rect></g></svg></g></svg>