<svg xmlns="http://www.w3.org/2000/svg" version="1.1" xmlns:xlink="http://www.w3.org/1999/xlink" xmlns:svgjs="http://svgjs.dev/svgjs" width="2000" height="2000" viewBox="0 0 2000 2000"><g transform="matrix(1,0,0,1,-0.28443113772425477,-0.28443113772459583)"><svg viewBox="0 0 334 334" data-background-color="#ffffff" preserveAspectRatio="xMidYMid meet" height="2000" width="2000" xmlns="http://www.w3.org/2000/svg" xmlns:xlink="http://www.w3.org/1999/xlink"><g id="tight-bounds" transform="matrix(1,0,0,1,0.04749999999998522,0.04750000000001364)"><svg viewBox="0 0 333.90454557049503 333.90454557049503" height="333.90454557049503" width="333.90454557049503"><rect width="333.905" height="333.905" fill="url(#2cca5d08-d9c8-4de0-97b6-e62632aa0e29)" mask="url(#c1547434-8b7e-4164-8412-72b17c044c24)" data-fill-palette-color="tertiary"></rect><g><svg></svg></g><g><svg viewBox="0 0 333.90454557049503 333.90454557049503" height="333.90454557049503" width="333.90454557049503"><g><path d="M0 166.952c0-92.205 74.747-166.952 166.952-166.952 92.205 0 166.952 74.747 166.953 166.952 0 92.205-74.747 166.952-166.953 166.953-92.205 0-166.952-74.747-166.952-166.953zM166.952 316.63c82.665 0 149.677-67.013 149.678-149.678 0-82.665-67.013-149.677-149.678-149.677-82.665 0-149.677 67.013-149.677 149.677 0 82.665 67.013 149.677 149.677 149.678z" data-fill-palette-color="tertiary" fill="url(#2cca5d08-d9c8-4de0-97b6-e62632aa0e29)" stroke="transparent"></path><ellipse rx="160.27418187383762" ry="160.27418187383762" cx="166.95227278524752" cy="166.95227278524752" fill="url(#2cca5d08-d9c8-4de0-97b6-e62632aa0e29)" stroke="transparent" stroke-width="0" fill-opacity="1" data-fill-palette-color="tertiary"></ellipse></g><g transform="matrix(1,0,0,1,112.24049343124545,71.17305217166896)"><svg viewBox="0 0 109.42355870800414 191.55844122715712" height="191.55844122715712" width="109.42355870800414"><g><svg viewBox="0 0 109.42355870800414 191.55844122715712" height="191.55844122715712" width="109.42355870800414"><g><svg viewBox="0 0 109.42355870800414 191.55844122715712" height="191.55844122715712" width="109.42355870800414"><g><svg viewBox="0 0 109.42355870800414 191.55844122715712" height="191.55844122715712" width="109.42355870800414"><g id="textblocktransform"><svg viewBox="0 0 109.42355870800414 191.55844122715712" height="191.55844122715712" width="109.42355870800414" id="textblock"><g><svg viewBox="0 0 109.42355870800414 191.55844122715712" height="191.55844122715712" width="109.42355870800414"><g transform="matrix(1,0,0,1,0,0)"><svg width="109.42355870800414" viewBox="1.76 -34.42 19.87 34.79" height="191.55844122715712" data-palette-color="#ffffff"><path d="M20.12-32.45L20.12-32.45Q20.12-32.32 19.95-31.54 19.78-30.76 19.59-29.97 19.41-29.17 19.34-29L19.34-29Q19.24-28.66 19.07-28.41 18.9-28.15 18.48-28.15L18.48-28.15Q18.21-28.15 17.9-28.27L17.9-28.27Q16.97-28.59 16.03-28.8 15.09-29 14.09-29L14.09-29Q12.87-29 11.66-28.66 10.45-28.32 9.64-27.49 8.84-26.66 8.84-25.2L8.84-25.2Q8.84-23.36 9.77-22.18 10.69-21 12.15-20.15 13.6-19.31 15.23-18.49 16.87-17.68 18.32-16.56 19.78-15.45 20.7-13.77 21.63-12.08 21.63-9.45L21.63-9.45Q21.63-5.83 19.92-3.69 18.21-1.54 15.43-0.59 12.65 0.37 9.45 0.37L9.45 0.37Q8.5 0.37 7.19 0.26 5.88 0.15 4.6-0.09 3.32-0.32 2.44-0.66L2.44-0.66Q2.15-0.78 1.95-0.95 1.76-1.12 1.76-1.49L1.76-1.49Q1.76-1.64 1.95-2.45 2.15-3.27 2.37-4.1 2.59-4.93 2.64-5.13L2.64-5.13Q2.76-5.47 2.92-5.69 3.08-5.91 3.49-5.91L3.49-5.91Q3.74-5.91 3.96-5.83L3.96-5.83Q5.15-5.49 6.38-5.25 7.62-5 8.86-5L8.86-5Q10.4-5 11.83-5.43 13.26-5.86 14.17-6.88 15.09-7.91 15.09-9.69L15.09-9.69Q15.09-11.72 14.14-12.95 13.18-14.18 11.69-15.03 10.21-15.87 8.53-16.64 6.86-17.41 5.37-18.43 3.88-19.46 2.93-21.09 1.98-22.73 1.98-25.34L1.98-25.34Q1.98-28.59 3.52-30.58 5.05-32.57 7.57-33.5 10.08-34.42 12.96-34.42L12.96-34.42Q14.4-34.42 16.28-34.16 18.16-33.89 19.48-33.3L19.48-33.3Q19.78-33.18 19.95-33 20.12-32.81 20.12-32.45Z" opacity="1" transform="matrix(1,0,0,1,0,0)" fill="#ffffff" class="wordmark-text-0" data-fill-palette-color="quaternary" id="text-0"></path></svg></g></svg></g></svg></g></svg></g><g></g></svg></g></svg></g></svg></g></svg></g><defs></defs><mask id="c1547434-8b7e-4164-8412-72b17c044c24"><g id="SvgjsG1208"><svg viewBox="0 0 333.90454557049503 333.90454557049503" height="333.90454557049503" width="333.90454557049503"><g><svg></svg></g><g><svg viewBox="0 0 333.90454557049503 333.90454557049503" height="333.90454557049503" width="333.90454557049503"><g><path d="M0 166.952c0-92.205 74.747-166.952 166.952-166.952 92.205 0 166.952 74.747 166.953 166.952 0 92.205-74.747 166.952-166.953 166.953-92.205 0-166.952-74.747-166.952-166.953zM166.952 316.63c82.665 0 149.677-67.013 149.678-149.678 0-82.665-67.013-149.677-149.678-149.677-82.665 0-149.677 67.013-149.677 149.677 0 82.665 67.013 149.677 149.677 149.678z" fill="white" stroke="transparent"></path><ellipse rx="160.27418187383762" ry="160.27418187383762" cx="166.95227278524752" cy="166.95227278524752" fill="white" stroke="transparent" stroke-width="0" fill-opacity="1"></ellipse></g><g transform="matrix(1,0,0,1,112.24049343124545,71.17305217166896)"><svg viewBox="0 0 109.42355870800414 191.55844122715712" height="191.55844122715712" width="109.42355870800414"><g><svg viewBox="0 0 109.42355870800414 191.55844122715712" height="191.55844122715712" width="109.42355870800414"><g><svg viewBox="0 0 109.42355870800414 191.55844122715712" height="191.55844122715712" width="109.42355870800414"><g><svg viewBox="0 0 109.42355870800414 191.55844122715712" height="191.55844122715712" width="109.42355870800414"><g id="SvgjsG1207"><svg viewBox="0 0 109.42355870800414 191.55844122715712" height="191.55844122715712" width="109.42355870800414" id="SvgjsSvg1206"><g><svg viewBox="0 0 109.42355870800414 191.55844122715712" height="191.55844122715712" width="109.42355870800414"><g transform="matrix(1,0,0,1,0,0)"><svg width="109.42355870800414" viewBox="1.76 -34.42 19.87 34.79" height="191.55844122715712" data-palette-color="#ffffff"><path d="M20.12-32.45L20.12-32.45Q20.12-32.32 19.95-31.54 19.78-30.76 19.59-29.97 19.41-29.17 19.34-29L19.34-29Q19.24-28.66 19.07-28.41 18.9-28.15 18.48-28.15L18.48-28.15Q18.21-28.15 17.9-28.27L17.9-28.27Q16.97-28.59 16.03-28.8 15.09-29 14.09-29L14.09-29Q12.87-29 11.66-28.66 10.45-28.32 9.64-27.49 8.84-26.66 8.84-25.2L8.84-25.2Q8.84-23.36 9.77-22.18 10.69-21 12.15-20.15 13.6-19.31 15.23-18.49 16.87-17.68 18.32-16.56 19.78-15.45 20.7-13.77 21.63-12.08 21.63-9.45L21.63-9.45Q21.63-5.83 19.92-3.69 18.21-1.54 15.43-0.59 12.65 0.37 9.45 0.37L9.45 0.37Q8.5 0.37 7.19 0.26 5.88 0.15 4.6-0.09 3.32-0.32 2.44-0.66L2.44-0.66Q2.15-0.78 1.95-0.95 1.76-1.12 1.76-1.49L1.76-1.49Q1.76-1.64 1.95-2.45 2.15-3.27 2.37-4.1 2.59-4.93 2.64-5.13L2.64-5.13Q2.76-5.47 2.92-5.69 3.08-5.91 3.49-5.91L3.49-5.91Q3.74-5.91 3.96-5.83L3.96-5.83Q5.15-5.49 6.38-5.25 7.62-5 8.86-5L8.86-5Q10.4-5 11.83-5.43 13.26-5.86 14.17-6.88 15.09-7.91 15.09-9.69L15.09-9.69Q15.09-11.72 14.14-12.95 13.18-14.18 11.69-15.03 10.21-15.87 8.53-16.64 6.86-17.41 5.37-18.43 3.88-19.46 2.93-21.09 1.98-22.73 1.98-25.34L1.98-25.34Q1.98-28.59 3.52-30.58 5.05-32.57 7.57-33.5 10.08-34.42 12.96-34.42L12.96-34.42Q14.4-34.42 16.28-34.16 18.16-33.89 19.48-33.3L19.48-33.3Q19.78-33.18 19.95-33 20.12-32.81 20.12-32.45Z" opacity="1" transform="matrix(1,0,0,1,0,0)" fill="black" class="wordmark-text-0" id="SvgjsPath1205"></path></svg></g></svg></g></svg></g></svg></g><g></g></svg></g></svg></g></svg></g></svg></g><defs><mask></mask></defs></svg><rect width="333.90454557049503" height="333.90454557049503" fill="black" stroke="none" visibility="hidden"></rect></g></mask><linearGradient x1="0" x2="1" y1="0.578" y2="0.595" id="2cca5d08-d9c8-4de0-97b6-e62632aa0e29"><stop stop-color="#6ee2f5" offset="0"></stop><stop stop-color="#6454f0" offset="1"></stop></linearGradient></svg><rect width="333.90454557049503" height="333.90454557049503" fill="none" stroke="none" visibility="hidden"></rect></g></svg></g></svg>